<svg width="48" height="48" viewBox="0 0 48 48" fill="none" xmlns="http://www.w3.org/2000/svg">
    <g clip-path="url(#70h2joyioa)">
        <path d="M48 24a9.728 9.728 0 0 0-4.779-8.39 6.39 6.39 0 0 0-.397-4.205 6.38 6.38 0 0 0-3.19-3.181 8.775 8.775 0 0 0-2.426-5.48A8.779 8.779 0 0 0 30.797 0 8.88 8.88 0 0 0 24 3.177 8.88 8.88 0 0 0 17.203 0a8.779 8.779 0 0 0-6.411 2.745 8.774 8.774 0 0 0-2.427 5.479 6.38 6.38 0 0 0-3.19 3.181 6.39 6.39 0 0 0-.396 4.205A9.728 9.728 0 0 0 0 24a9.728 9.728 0 0 0 4.779 8.39 6.39 6.39 0 0 0 .397 4.205 6.38 6.38 0 0 0 3.19 3.181 8.775 8.775 0 0 0 2.426 5.48A8.779 8.779 0 0 0 17.203 48 8.88 8.88 0 0 0 24 44.823 8.88 8.88 0 0 0 30.797 48a8.779 8.779 0 0 0 6.411-2.745 8.775 8.775 0 0 0 2.427-5.479 6.38 6.38 0 0 0 3.19-3.181 6.39 6.39 0 0 0 .396-4.205A9.728 9.728 0 0 0 48 24zm-6.801 6.281H34.5V26.24h4.969c.776 0 1.406-.63 1.406-1.406v-4.114a1.406 1.406 0 0 0-2.813 0v2.707H34.5V20.99a2.816 2.816 0 0 0-2.813-2.813h-2.812a1.406 1.406 0 0 0 0 2.813h2.813v9.292h-6.282V27.75a1.406 1.406 0 0 0-2.813 0v2.531a2.816 2.816 0 0 0 2.813 2.813h15.09a3.59 3.59 0 0 1-.23 2.332 3.577 3.577 0 0 1-2.374 1.991 1.406 1.406 0 0 0-1.056 1.43 6.002 6.002 0 0 1-1.664 4.467 5.992 5.992 0 0 1-4.375 1.873 6.062 6.062 0 0 1-5.39-3.305v-2.976h2.53a1.406 1.406 0 0 0 0-2.812h-2.53a2.816 2.816 0 0 0-2.813 2.812v2.976a6.061 6.061 0 0 1-5.39 3.306 5.991 5.991 0 0 1-4.376-1.874 5.994 5.994 0 0 1-1.574-3.087h3.371a2.816 2.816 0 0 0 2.813-2.813v-1.738h1.218a1.406 1.406 0 1 0 0-2.813h-1.218v-1.738a2.816 2.816 0 0 0-2.813-2.813h-2.438a1.406 1.406 0 0 0 0 2.813h2.438v6.29s-4.513.003-4.517.002a3.577 3.577 0 0 1-2.374-1.99 3.58 3.58 0 0 1 .049-3.102 1.407 1.407 0 0 0-.714-1.925A6.925 6.925 0 0 1 2.813 24a6.925 6.925 0 0 1 4.256-6.4c.041-.018.081-.038.12-.059h2.186v4.219a1.406 1.406 0 1 0 2.812 0v-4.219h5.25v6.844a1.406 1.406 0 1 0 2.813 0v-2.531h1.37a1.406 1.406 0 1 0 0-2.813h-1.37v-1.5a2.816 2.816 0 0 0-2.813-2.812h-.843v-3.76a1.406 1.406 0 1 0-2.813 0v3.76H7.465a3.595 3.595 0 0 1 .27-2.155 3.578 3.578 0 0 1 2.373-1.991 1.406 1.406 0 0 0 1.056-1.43 6.002 6.002 0 0 1 1.664-4.467 5.992 5.992 0 0 1 4.375-1.873 6.06 6.06 0 0 1 5.485 3.498v4.752a2.816 2.816 0 0 0 2.812 2.812H33a1.406 1.406 0 0 0 0-2.813h-.281V9.095a1.406 1.406 0 0 0-2.813 0v1.969H25.5s-.003-5.063-.007-5.11a6.063 6.063 0 0 1 5.304-3.14c1.67 0 3.224.665 4.375 1.873a6.002 6.002 0 0 1 1.665 4.468 1.406 1.406 0 0 0 1.055 1.429c1.054.27 1.92.996 2.374 1.99a3.581 3.581 0 0 1-.049 3.102 1.406 1.406 0 0 0 .714 1.924A6.925 6.925 0 0 1 45.188 24a6.924 6.924 0 0 1-3.99 6.281z" fill="#FF5A30"/>
    </g>
    <defs>
        <clipPath id="70h2joyioa">
            <path fill="#fff" d="M0 0h48v48H0z"/>
        </clipPath>
    </defs>
</svg>
