<svg width="64" height="64" viewBox="0 0 64 64" fill="none" xmlns="http://www.w3.org/2000/svg">
    <path d="m46.834 2.679-7.406-.012c-8.32 0-13.697 5.667-13.697 14.438v6.657h-7.447c-.643 0-1.164.535-1.164 1.196v9.645c0 .661.522 1.197 1.165 1.197h7.446v24.337c0 .661.521 1.196 1.164 1.196h9.716c.643 0 1.165-.535 1.165-1.196V35.8h8.706c.644 0 1.165-.536 1.165-1.197l.003-9.645c0-.317-.123-.621-.34-.846a1.15 1.15 0 0 0-.825-.35h-8.71v-5.644c0-2.712.63-4.089 4.07-4.089l4.988-.002c.643 0 1.164-.535 1.164-1.196V3.875c0-.66-.52-1.195-1.163-1.196z" fill="#1E212C" opacity=".6"/>
</svg>
