<svg width="48" height="48" viewBox="0 0 48 48" fill="none" xmlns="http://www.w3.org/2000/svg">
    <g clip-path="url(#tsxy2jadna)" fill="#FF5A30">
        <path d="M7 44H1.5A1.5 1.5 0 0 1 0 42.5v-17A1.5 1.5 0 0 1 1.5 24c7.012 0 10.276 2.434 10.41 2.538a1.5 1.5 0 0 1 .538 1.584l-4 14.772A1.5 1.5 0 0 1 7 44zm-4-3h2.852l3.396-12.542c-1.046-.494-3.09-1.23-6.248-1.414V41z"/>
        <path d="M26 48c-4.518 0-12.846-3.458-19.038-6.362a1.5 1.5 0 0 1 1.274-2.718C16.476 42.786 22.952 45 26 45c4.056 0 13.264-4.382 18.09-6.91-.556-.318-1.384-.59-2.59-.59-1.76 0-3.93.72-6.028 1.416-.682.226-1.362.452-2.036.658-1.484.458-3.236.926-4.938.926-4.214 0-9.778-2.004-10.012-2.09a1.499 1.499 0 0 1-.898-1.922 1.503 1.503 0 0 1 1.922-.898c.052.02 5.304 1.91 8.988 1.91 1.312 0 2.858-.424 4.058-.794.652-.2 1.31-.418 1.968-.636 2.324-.772 4.726-1.57 6.972-1.57 4.958 0 6.336 3.302 6.392 3.444a1.5 1.5 0 0 1-.668 1.87C46.62 40.148 32.314 48 26 48z"/>
        <path d="M33 39.68a1.5 1.5 0 0 1-1.5-1.5v-.9a2.51 2.51 0 0 0-2-2.45l-19.262-3.94a1.5 1.5 0 0 1 .602-2.938l19.262 3.94a5.52 5.52 0 0 1 4.398 5.39v.9A1.5 1.5 0 0 1 33 39.68zM36 28c-.2 0-.398-.04-.586-.12C34.948 27.682 24 22.916 24 13.108V5.072a1.5 1.5 0 0 1 1.018-1.42L35.518.08c.312-.108.652-.108.964 0l10.5 3.572c.61.206 1.018.776 1.018 1.42v8.036c0 9.808-10.948 14.576-11.414 14.774A1.526 1.526 0 0 1 36 28zM27 6.146v6.962c0 6.696 6.91 10.682 8.998 11.732C38.082 23.784 45 19.778 45 13.108V6.146l-9-3.062-9 3.062z"/>
        <path d="M35.5 19c-.396 0-.78-.158-1.06-.44l-4-4a1.5 1.5 0 1 1 2.122-2.122l2.778 2.778L40.3 8.6a1.499 1.499 0 1 1 2.398 1.8l-6 8c-.26.348-.658.566-1.094.596-.034.004-.068.004-.104.004z"/>
    </g>
    <defs>
        <clipPath id="tsxy2jadna">
            <path fill="#fff" d="M0 0h48v48H0z"/>
        </clipPath>
    </defs>
</svg>
