<svg width="48" height="48" viewBox="0 0 48 48" fill="none" xmlns="http://www.w3.org/2000/svg">
    <path fill-rule="evenodd" clip-rule="evenodd" d="M43.846 21.135a15.506 15.506 0 0 1-1.96 5.574c.075.427.113.858.113 1.292 0 1.506-.436 2.947-1.244 4.256-.404.653-.508 1.419-.547 1.925-.046.58-.03 1.214.01 1.824.047.683.131 1.401.227 2.078a41.476 41.476 0 0 0-2.434-.638 17.388 17.388 0 0 0-1.981-.345c-.543-.056-1.328-.1-2.03.127a16.273 16.273 0 0 1-5 .773c-2.117 0-4.06-.376-5.763-1.028-.41.019-.823.028-1.238.028-2.41 0-4.728-.317-6.897-.902C18.256 39.745 23.455 42 28.999 42c2.166 0 4.245-.333 6.16-.944h.019c.05 0 .186-.004.44.023.402.041.918.134 1.513.268 1.185.267 2.516.662 3.554.99 2.2.7 4.332-1.22 3.938-3.453-.169-.962-.344-2.134-.414-3.15a8.905 8.905 0 0 1-.014-1.238 2.33 2.33 0 0 1 .031-.25C45.352 32.383 46 30.26 46 28c0-2.547-.791-4.873-2.153-6.866z" fill="#FF5A30"/>
    <path fill-rule="evenodd" clip-rule="evenodd" d="M11.193 11.396C8.497 13.458 7 16.164 7 19c0 1.414.368 2.776 1.059 4.043.263.482.338.98.364 1.316.03.367.015.745-.017 1.098-.064.707-.217 1.508-.4 2.296a46.454 46.454 0 0 1-.766 2.83 55.153 55.153 0 0 1 3.306-1.096c.885-.258 1.778-.482 2.573-.608.685-.108 1.68-.215 2.535.081 1.92.665 4.07 1.04 6.346 1.04 4.295 0 8.108-1.333 10.806-3.396C35.501 24.542 37 21.836 37 19c0-2.836-1.498-5.542-4.194-7.604C30.107 9.333 26.294 8 22 8c-4.294 0-8.108 1.333-10.806 3.396zM8.763 8.22C12.22 5.577 16.905 4 22 4c5.095 0 9.78 1.577 13.236 4.219 3.457 2.643 5.764 6.437 5.764 10.781s-2.307 8.138-5.764 10.781C31.78 32.423 27.094 34 21.999 34c-2.686 0-5.252-.438-7.581-1.235-.003.007-.192-.012-.675.065-.557.088-1.269.26-2.078.497-1.61.47-3.42 1.135-4.798 1.67-2.387.93-4.82-1.363-4.015-3.805.427-1.294.93-2.93 1.257-4.343.165-.711.272-1.31.312-1.752.014-.154.018-.266.017-.342-.92-1.76-1.439-3.704-1.439-5.755 0-4.344 2.308-8.138 5.764-10.781z" fill="#FF5A30"/>
</svg>
