<svg width="48" height="48" viewBox="0 0 48 48" fill="none" xmlns="http://www.w3.org/2000/svg">
    <path d="M46.594 25.406c.776 0 1.406-.63 1.406-1.406V13.5c0-.777-.63-1.406-1.406-1.406H25.406V3c0-.777-.63-1.406-1.406-1.406H9c-.777 0-1.406.63-1.406 1.406v9.094H1.406C.63 12.094 0 12.724 0 13.5V24c0 .777.63 1.406 1.406 1.406h6.188v7.688H1.406C.63 33.094 0 33.724 0 34.5V45c0 .777.63 1.406 1.406 1.406h45.188c.776 0 1.406-.63 1.406-1.406V34.5c0-.777-.63-1.406-1.406-1.406h-6.188v-7.688h6.188zm-1.407-2.812h-12.28v-7.688h12.28v7.688zm-15.093 0H17.906v-7.688h12.188v7.688zM10.406 4.406h12.188v7.688H10.406V4.406zM2.812 22.594v-7.688h12.282v7.688H2.813zm7.594 2.812h12.188v7.688H10.406v-7.688zm-7.594 10.5h12.282v7.688H2.813v-7.688zm15.094 0h12.188v7.688H17.906v-7.688zm27.282 0v7.688H32.906v-7.688h12.282zm-7.594-2.812H25.406v-7.688h12.188v7.688z" fill="#FF5A30"/>
</svg>
