<svg width="48" height="48" viewBox="0 0 48 48" fill="none" xmlns="http://www.w3.org/2000/svg">
    <path d="M42.827 15.062h-6.125v-4.718H46.594a1.406 1.406 0 0 0 .95-2.443l-2.729-2.73 2.772-2.77A1.406 1.406 0 0 0 46.592 0H35.295c-.776 0-1.406.63-1.406 1.406v13.656h-1.606a5.178 5.178 0 0 0-5.172 5.172v2.93a5.14 5.14 0 0 0-2.359-.571h-1.506a5.177 5.177 0 0 0-5.172 5.172v2.93a5.143 5.143 0 0 0-2.36-.57H14.21a5.177 5.177 0 0 0-5.172 5.17v2.932a5.135 5.135 0 0 0-2.36-.572H5.173A5.177 5.177 0 0 0 0 42.827v3.765c0 .777.63 1.406 1.406 1.406h45.186c.777 0 1.406-.63 1.406-1.406V20.234a5.178 5.178 0 0 0-5.171-5.172zm-6.125-12.25h6.495l-1.365 1.365a1.405 1.405 0 0 0 0 1.99l1.365 1.364h-6.495V2.812zM2.812 42.826c0-1.3 1.059-2.359 2.36-2.359h1.506c1.3 0 2.359 1.059 2.359 2.36v2.359H2.812v-2.36zm9.038 0v-7.53a2.362 2.362 0 0 1 2.359-2.36h1.506c1.3 0 2.359 1.059 2.359 2.36v9.89h-6.225v-2.36zm9.036-7.53v-7.531c0-1.301 1.06-2.36 2.36-2.36h1.506c1.3 0 2.36 1.059 2.36 2.36v17.42h-6.226v-9.89zm24.3 9.89H29.924V20.234a2.362 2.362 0 0 1 2.359-2.36h10.544c1.3 0 2.359 1.059 2.359 2.36v24.952z" fill="#FF5A30"/>
</svg>
