<svg width="64" height="64" viewBox="0 0 64 64" fill="none" xmlns="http://www.w3.org/2000/svg">
    <path d="M60 15.393a23.737 23.737 0 0 1-6.596 1.733c2.372-1.36 4.188-3.519 5.05-6.082a23.79 23.79 0 0 1-7.3 2.67c-2.097-2.14-5.078-3.474-8.385-3.474-6.344 0-11.488 4.925-11.488 10.997 0 .861.101 1.702.297 2.506-9.546-.459-18.01-4.838-23.676-11.493a10.564 10.564 0 0 0-1.554 5.529c0 3.817 2.03 7.184 5.11 9.154a11.88 11.88 0 0 1-5.204-1.38v.137c0 5.327 3.96 9.774 9.213 10.786-.962.248-1.977.385-3.027.385-.742 0-1.459-.07-2.162-.204 1.463 4.372 5.704 7.552 10.729 7.64-3.93 2.948-8.885 4.7-14.267 4.7-.927 0-1.84-.053-2.74-.15 5.085 3.126 11.121 4.948 17.609 4.948 21.132 0 32.684-16.76 32.684-31.295l-.039-1.424A22.432 22.432 0 0 0 60 15.393z" fill="#1E212C" opacity=".6"/>
</svg>
