<svg width="64" height="64" viewBox="0 0 64 64" fill="none" xmlns="http://www.w3.org/2000/svg">
    <path d="M58.667 31.313c0 14.349-11.721 25.98-26.182 25.98-4.591 0-8.904-1.173-12.656-3.233L5.333 58.667l4.726-13.94a25.706 25.706 0 0 1-3.757-13.414c0-14.348 11.722-25.98 26.183-25.98 14.462 0 26.182 11.632 26.182 25.98zM32.485 9.471c-12.139 0-22.013 9.798-22.013 21.842 0 4.78 1.558 9.206 4.194 12.806l-2.75 8.112 8.459-2.689a21.998 21.998 0 0 0 12.11 3.614c12.137 0 22.013-9.798 22.013-21.842 0-12.044-9.875-21.843-22.013-21.843zm13.221 27.826c-.162-.265-.589-.425-1.23-.743-.642-.319-3.799-1.86-4.385-2.072-.589-.212-1.018-.319-1.445.319-.427.637-1.658 2.07-2.033 2.496-.374.426-.748.479-1.39.16-.642-.318-2.71-.991-5.16-3.16-1.908-1.688-3.197-3.771-3.571-4.41-.374-.637-.04-.98.281-1.298.29-.286.643-.744.963-1.115.322-.372.429-.637.642-1.063.215-.425.107-.796-.054-1.116-.16-.318-1.445-3.452-1.98-4.727-.534-1.274-1.068-1.062-1.443-1.062-.374 0-.802-.053-1.23-.053-.428 0-1.123.16-1.712.797-.588.637-2.245 2.178-2.245 5.31 0 3.135 2.298 6.162 2.62 6.586.32.425 4.439 7.064 10.963 9.614 6.525 2.549 6.525 1.698 7.702 1.592 1.176-.106 3.796-1.54 4.333-3.027.533-1.488.533-2.763.374-3.028z" fill="#1E212C" opacity=".6"/>
</svg>
