<svg width="64" height="64" viewBox="0 0 64 64" fill="none" xmlns="http://www.w3.org/2000/svg">
    <path fill-rule="evenodd" clip-rule="evenodd" d="M57.04 10.97a8.018 8.018 0 0 1 5.641 5.642C64.052 21.619 64 32.058 64 32.058s0 10.385-1.318 15.393a8.018 8.018 0 0 1-5.641 5.64C52.033 54.412 32 54.412 32 54.412s-19.98 0-25.041-1.371a8.02 8.02 0 0 1-5.641-5.641C0 42.443 0 32.005 0 32.005S0 21.62 1.318 16.612c.738-2.741 2.952-4.956 5.64-5.694C11.967 9.6 32 9.6 32 9.6s20.034 0 25.042 1.37zM42.28 32.006 25.62 41.6V22.41l16.659 9.595z" fill="#1E212C" opacity=".6"/>
</svg>
