<svg width="807" height="167" viewBox="0 0 807 167" fill="none" xmlns="http://www.w3.org/2000/svg">
    <path d="M259.958 124.275c.022.102.054.199.081.299-.027-.1-.059-.197-.081-.299zm-.118-.776c.012.096.028.189.043.286-.015-.097-.031-.19-.043-.286zm.315 1.53c.023.078.056.151.084.227-.028-.076-.061-.149-.084-.227zm-.216-3.794c-.004.018-.004.037-.009.054.005-.017.005-.036.009-.054zm-32.162-54.314.014.001-.014-.001zm3.042.001-.022.005.022-.005zm36.785 47.972a7.801 7.801 0 0 0-7.288 5.02c.004-.006.004-.009.007-.015h-28.104V66.503a7.8 7.8 0 0 0-2.911-15.035c-4.309 0-7.8 3.49-7.8 7.803a7.795 7.795 0 0 0 4.856 7.22c-.004 0-.011 0-.013-.004v57.586c0 1.125.56 1.689 1.69 1.689h32.386s-.003-.003-.003-.007a7.8 7.8 0 0 0 7.18 4.743c4.305 0 7.797-3.495 7.797-7.803a7.798 7.798 0 0 0-7.797-7.801zM582.347 162.306c-1.472.79-3.189 1.184-5.16 1.184-1.573 0-3.02-.284-4.332-.85a10.294 10.294 0 0 1-3.405-2.342 10.774 10.774 0 0 1-2.244-3.521c-.538-1.353-.804-2.831-.804-4.431 0-1.598.266-3.077.804-4.431a10.774 10.774 0 0 1 2.244-3.521 10.331 10.331 0 0 1 3.405-2.345c1.312-.563 2.759-.847 4.332-.847 1.943 0 3.623.382 5.042 1.145 1.418.761 2.554 1.782 3.425 3.071l2.163-1.576c-2.311-3.466-5.852-5.196-10.63-5.196-1.891 0-3.672.333-5.351 1.001-1.683.673-3.14 1.609-4.374 2.816-1.234 1.208-2.214 2.65-2.934 4.33-.722 1.681-1.081 3.533-1.081 5.553 0 2.021.359 3.872 1.081 5.55.72 1.682 1.7 3.127 2.934 4.333 1.234 1.207 2.691 2.145 4.374 2.815 1.679.669 3.46 1.003 5.351 1.003 2.416 0 4.562-.485 6.437-1.458a12.26 12.26 0 0 0 4.587-4.055l-2.205-1.535c-.971 1.417-2.191 2.521-3.659 3.307zM618.351 156.775a10.677 10.677 0 0 1-2.264 3.522 10.497 10.497 0 0 1-3.423 2.341c-1.317.567-2.757.851-4.33.851-1.549 0-2.989-.284-4.313-.851a10.164 10.164 0 0 1-3.424-2.341c-.962-.997-1.708-2.172-2.248-3.522-.537-1.353-.804-2.83-.804-4.43 0-1.597.267-3.078.804-4.431.54-1.35 1.286-2.525 2.248-3.521a10.23 10.23 0 0 1 3.424-2.344c1.324-.563 2.764-.847 4.313-.847 1.573 0 3.013.284 4.33.847a10.554 10.554 0 0 1 3.423 2.345 10.662 10.662 0 0 1 2.264 3.521c.536 1.354.809 2.833.809 4.431 0 1.6-.273 3.078-.809 4.431v-.002zm-.276-14.313c-1.245-1.206-2.706-2.142-4.369-2.815-1.668-.668-3.459-1.001-5.372-1.001-1.892 0-3.677.333-5.359 1.001-1.676.673-3.137 1.609-4.37 2.816-1.234 1.208-2.209 2.65-2.932 4.33-.722 1.681-1.085 3.533-1.085 5.553 0 2.021.363 3.872 1.085 5.55.723 1.682 1.698 3.127 2.932 4.333 1.233 1.207 2.694 2.145 4.37 2.815 1.682.667 3.467 1.001 5.359 1.001 1.913.001 3.704-.334 5.372-1.001 1.663-.672 3.124-1.608 4.369-2.815 1.248-1.208 2.232-2.652 2.957-4.335.716-1.677 1.078-3.527 1.078-5.548 0-2.02-.362-3.872-1.078-5.553-.725-1.68-1.709-3.122-2.957-4.33M643.672 154.097c-.563-.641-1.263-1.234-2.099-1.773a23.488 23.488 0 0 0-2.905-1.556l-2.122-.981c-1.49-.685-2.568-1.361-3.239-2.03-.667-.667-1.001-1.594-1.001-2.776 0-1.157.379-2.08 1.122-2.777.748-.694 1.793-1.043 3.131-1.043 1.261 0 2.272.28 3.033.827a7.4 7.4 0 0 1 1.928 2.089l2.284-1.418a8.822 8.822 0 0 0-2.795-2.896c-1.154-.745-2.636-1.119-4.45-1.119a8.42 8.42 0 0 0-2.791.452 6.713 6.713 0 0 0-2.261 1.299 6.007 6.007 0 0 0-1.496 2.03c-.36.785-.539 1.665-.539 2.635 0 .945.132 1.772.395 2.481.26.708.644 1.352 1.142 1.928a8.364 8.364 0 0 0 1.848 1.576 18.73 18.73 0 0 0 2.524 1.338l2.123.984a19.48 19.48 0 0 1 2.206 1.124c.629.382 1.155.787 1.573 1.22.42.433.738.912.946 1.437.21.526.315 1.126.315 1.812 0 .706-.143 1.344-.433 1.911a4.253 4.253 0 0 1-1.181 1.434 5.348 5.348 0 0 1-1.75.904 7.176 7.176 0 0 1-2.185.317c-.947 0-1.78-.112-2.502-.337a6.604 6.604 0 0 1-1.889-.903 6.803 6.803 0 0 1-1.418-1.339 12.163 12.163 0 0 1-1.08-1.596l-2.369 1.261c.343.709.783 1.393 1.323 2.048a8.478 8.478 0 0 0 1.949 1.732c.76.501 1.64.9 2.638 1.201.996.301 2.137.452 3.425.452 1.204 0 2.314-.163 3.327-.491 1.008-.329 1.883-.794 2.619-1.398a6.506 6.506 0 0 0 1.733-2.225c.419-.88.627-1.869.627-2.971 0-.999-.138-1.896-.431-2.697a6.735 6.735 0 0 0-1.275-2.166zM650.97 141.478h8.231v24.252h2.832v-24.252h8.227v-2.52h-19.29v2.52zM684.614 145.887c.116.368.24.708.372 1.024l4.726 11.893h-11.536l4.724-11.893c.131-.316.257-.656.373-1.024.119-.366.228-.709.338-1.023.103-.368.221-.748.353-1.142.107.394.207.774.315 1.142.107.314.218.657.335 1.023zm-.885-7.206-11.104 27.049h2.797l1.769-4.488h13.547l1.808 4.488h2.993l-11.338-27.049h-.472zM721.013 156.164h-3.031v-14.686h3.031c1.496 0 2.776.185 3.839.551 1.063.368 1.923.88 2.579 1.535a5.846 5.846 0 0 1 1.436 2.345c.301.906.455 1.882.455 2.93 0 1.05-.154 2.025-.455 2.914a5.87 5.87 0 0 1-1.436 2.323c-.656.655-1.51 1.169-2.559 1.534-1.05.371-2.339.554-3.859.554zm9.86-2.049c.933-1.497 1.402-3.251 1.402-5.276 0-1.444-.238-2.766-.712-3.975a8.551 8.551 0 0 0-2.103-3.132c-.935-.878-2.089-1.559-3.464-2.044-1.383-.488-2.986-.73-4.825-.73h-6.023v26.772h2.834v-7.125h3.189c.971 0 1.915-.079 2.834-.238l5.16 7.363h3.344l-5.827-8.23c1.864-.761 3.262-1.89 4.191-3.385zM744.323 138.959h-2.834v26.771h2.834v-26.771zM771.922 162.306c-1.473.79-3.191 1.184-5.157 1.184-1.577 0-3.017-.284-4.335-.85a10.242 10.242 0 0 1-3.4-2.342c-.964-.996-1.707-2.171-2.247-3.521-.54-1.353-.807-2.831-.807-4.431 0-1.598.267-3.077.807-4.431.54-1.35 1.283-2.525 2.247-3.521a10.28 10.28 0 0 1 3.4-2.345c1.318-.563 2.758-.847 4.335-.847 1.943 0 3.62.382 5.04 1.145 1.414.761 2.558 1.782 3.424 3.071l2.166-1.576c-2.312-3.466-5.853-5.196-10.63-5.196-1.889 0-3.678.333-5.357 1.001-1.678.673-3.135 1.609-4.371 2.816-1.232 1.208-2.211 2.65-2.93 4.33-.724 1.681-1.088 3.533-1.088 5.553 0 2.021.364 3.872 1.088 5.55.719 1.682 1.698 3.127 2.93 4.333 1.236 1.207 2.693 2.145 4.371 2.815 1.679.669 3.468 1.003 5.357 1.003 2.412 0 4.561-.485 6.436-1.458a12.307 12.307 0 0 0 4.59-4.055l-2.21-1.535c-.97 1.417-2.189 2.521-3.659 3.307zM795.091 145.887c.121.368.239.708.375 1.024l4.724 11.893h-11.535l4.724-11.893a13.6 13.6 0 0 0 .374-1.024c.116-.366.228-.709.335-1.023.102-.368.222-.748.351-1.142.107.394.212.774.318 1.142.104.314.22.657.334 1.023zm-.887-7.206-11.1 27.049h2.795l1.77-4.488h13.545l1.812 4.488h2.99l-11.34-27.049h-.472zM554.373 109.848c-.566-.684-1.112-1.032-1.645-1.032-.188.033-.413.079-.68.141a2.085 2.085 0 0 0-.774.378 23.829 23.829 0 0 1-6.364 3.283c-2.297.786-4.715 1.175-7.246 1.175-3.197 0-6.123-.594-8.78-1.784a21.301 21.301 0 0 1-6.904-4.881c-1.937-2.067-3.448-4.484-4.527-7.254-1.082-2.772-1.622-5.734-1.622-8.897 0-3.19.54-6.18 1.622-8.966 1.079-2.784 2.59-5.212 4.527-7.275 1.943-2.066 4.24-3.701 6.904-4.904 2.657-1.207 5.583-1.808 8.78-1.808 2.531 0 4.929.391 7.179 1.176a24.805 24.805 0 0 1 6.335 3.28c.254.16.504.277.756.355.248.078.465.118.655.118.592 0 1.156-.357 1.69-1.08l4.554-7.746c.185-.379.28-.736.28-1.08 0-.44-.127-.815-.373-1.127a3.313 3.313 0 0 0-.942-.797 36.394 36.394 0 0 0-9.437-4.53c-3.349-1.048-6.883-1.574-10.603-1.574-3.324 0-6.504.434-9.558 1.291a36.81 36.81 0 0 0-8.567 3.616 34.945 34.945 0 0 0-7.252 5.612 36.283 36.283 0 0 0-5.608 7.297 35.753 35.753 0 0 0-3.616 8.588c-.841 3.051-1.264 6.237-1.264 9.554 0 3.32.423 6.502 1.264 9.554.842 3.049 2.05 5.9 3.616 8.544a36.334 36.334 0 0 0 5.608 7.229 36.097 36.097 0 0 0 7.252 5.61 35.447 35.447 0 0 0 8.567 3.613c3.054.846 6.234 1.27 9.558 1.27 3.753 0 7.329-.543 10.724-1.62a37.43 37.43 0 0 0 9.504-4.575c.348-.253.65-.517.917-.8.264-.281.399-.642.399-1.08 0-.31-.093-.659-.284-1.033l-4.645-7.841zM630.518 123.698V58.071c0-.625-.228-1.117-.684-1.479-.45-.36-.985-.541-1.611-.541h-9.22c-.621 0-1.119.205-1.496.613-.372.403-.559.889-.559 1.454v24.315h-31.501V58.118c0-.565-.231-1.05-.699-1.454-.469-.408-.966-.613-1.496-.613h-9.357c-.627 0-1.119.214-1.474.633a2.173 2.173 0 0 0-.539 1.434v65.724c0 1.28.666 1.921 2.013 1.921h9.262c1.527 0 2.29-.687 2.29-2.065v-28.4h31.501v28.4c0 1.378.685 2.065 2.055 2.065h9.31c1.465 0 2.205-.687 2.205-2.065zM663.514 100.743a502.538 502.538 0 0 0 5.045-13.38c1.675-4.63 3.36-9.106 5.049-13.423l9.904 26.803h-19.998zm42.668 23.611a3.41 3.41 0 0 0-.066-.585 2.907 2.907 0 0 1-.07-.491l-24.784-62.013-1.554-3.666a6.457 6.457 0 0 0-.725-.983c-.33-.376-.875-.564-1.624-.564h-7.554c-.72 0-1.292.214-1.715.633-.42.424-.681.81-.775 1.152l-25.301 62.999c-.157.439-.34.922-.542 1.454a15.578 15.578 0 0 0-.54 1.738c-.033.093-.039.234-.039.422 0 .438.177.768.535.984.356.22.835.329 1.428.329h9.391c1.192 0 2.002-.577 2.441-1.735.534-1.44 1.183-3.122 1.946-5.05a300.711 300.711 0 0 0 2.375-6.172h28.962a211.148 211.148 0 0 0 1.736 4.558c.598 1.501 1.192 3.002 1.785 4.502l.847 2.162c.247.598.561 1.032.938 1.315.372.28.907.42 1.597.42h9.246c1.378 0 2.062-.465 2.062-1.409zM729.093 56.614c-.464-.375-.966-.563-1.491-.563h-9.313c-.686 0-1.2.205-1.544.613-.343.403-.515.889-.515 1.454v65.58c0 1.378.687 2.064 2.059 2.064h9.313c1.464 0 2.196-.686 2.196-2.064v-65.58c0-.624-.234-1.127-.705-1.504zM804.84 56.614c-.457-.375-.997-.563-1.62-.563h-9.064c-.532 0-.985.155-1.362.472-.373.311-.609.748-.703 1.313v44.974a17404 17404 0 0 1-15.911-22.748 15877.556 15877.556 0 0 0-15.918-22.742c-.315-.437-.661-.76-1.055-.964a2.661 2.661 0 0 0-1.24-.305h-10.798c-.66 0-1.169.205-1.527.613-.36.403-.539.908-.539 1.5v65.579c0 .63.165 1.12.489 1.48.337.36.857.539 1.577.539h9.012c.782 0 1.334-.171 1.67-.516.325-.344.49-.859.49-1.548V76.614c5.474 8.01 10.944 15.998 16.402 23.965a10456.35 10456.35 0 0 0 16.457 23.916c.594.846 1.24 1.267 1.924 1.267h10.189c1.469 0 2.206-.64 2.206-1.922V58.118c0-.624-.229-1.127-.679-1.504zM208.021 111.602a13.818 13.818 0 0 1-2.74 4.263 13.674 13.674 0 0 1-4.004 2.932 10.862 10.862 0 0 1-4.8 1.101h-27.21V92.67h26.882c1.718 0 3.357.382 4.918 1.15a13.613 13.613 0 0 1 4.097 3.07 15.263 15.263 0 0 1 2.811 4.401 13.086 13.086 0 0 1 1.054 5.157c0 1.811-.336 3.531-1.008 5.154zm-34.741-53.3.017.123c-.005-.04-.012-.08-.017-.124zm-.137-.774c.004.019.011.04.014.06-.003-.02-.01-.041-.014-.06zm-.217-.768c.002.005.005.01.006.016-.001-.007-.004-.011-.006-.016zm.287 3.894zm38.476 35.134a20.323 20.323 0 0 0-3.609-4.111 16.781 16.781 0 0 0-4.572-2.84c2.389-1.594 4.305-3.658 5.752-6.19 1.442-2.535 2.162-5.349 2.162-8.445 0-2.562-.477-4.955-1.428-7.176a18.052 18.052 0 0 0-3.942-5.792c-1.671-1.639-3.633-2.922-5.883-3.847-2.254-.92-4.673-1.383-7.271-1.383h-20.274c.003.005.003.01.004.014a7.795 7.795 0 0 0-7.084-4.55 7.801 7.801 0 0 0-7.802 7.803 7.802 7.802 0 0 0 7.802 7.802c3.4 0 6.282-2.178 7.351-5.209l-.001.01h20.004c1.778 0 3.444.312 4.991.937 1.55.622 2.88 1.49 4.01 2.592a12.315 12.315 0 0 1 2.669 3.932c.658 1.513.989 3.155.989 4.932 0 1.776-.331 3.43-.989 4.959a12.024 12.024 0 0 1-2.719 3.973 12.746 12.746 0 0 1-4.032 2.644c-1.531.638-3.184.96-4.969.96h-23.581v-8.77c0-1.444-.744-2.161-2.244-2.161h-1.226c-1.597 0-2.398.717-2.398 2.16v46.373c.06.373.209.686.448.938.233.249.57.391 1.006.42h31.582c2.59-.029 5.014-.579 7.263-1.645a19.165 19.165 0 0 0 5.858-4.249c1.656-1.769 2.96-3.813 3.911-6.135a19.062 19.062 0 0 0 1.432-7.326c0-1.911-.284-3.773-.845-5.592a19.637 19.637 0 0 0-2.365-5.028zM486.193 117.99c-.005.009-.013.018-.024.031.011-.013.019-.022.024-.031zm2.031-1.872c-.023.014-.048.026-.07.04.022-.014.047-.026.07-.04zm-1.088.837c-.018.021-.042.037-.065.058.023-.021.047-.037.065-.058zm-46.634-50.017c.022.004.047.007.067.012-.02-.005-.045-.008-.067-.012zm2.817 0zm49.088 47.954a7.817 7.817 0 0 0-3.013.604l-25.667-30.525 26.338-27.56c-.093-.187-.126-.279-.093-.279l.049.047c0 .033.013.065.044.092.312-.31.468-.578.468-.798 0-.28-.33-.422-.984-.422h-5.163c-.374 0-.762.135-1.151.402a8.59 8.59 0 0 0-1.245 1.053l-37.369 39.666V66.574c2.968-1.103 5.088-3.952 5.088-7.303a7.804 7.804 0 0 0-7.804-7.803 7.8 7.8 0 0 0-7.801 7.803c0 3.365 2.135 6.223 5.121 7.319 0-.002 0-.002-.003-.002v57.017c0 1.438.689 2.157 2.069 2.157h1.127c1.471 0 2.203-.719 2.203-2.157v-18.496l15.496-16.336 25.339 30.396a7.715 7.715 0 0 0-.851 3.526 7.803 7.803 0 1 0 7.802-7.803zM100.056 41.855a6.116 6.116 0 0 1 4.39 1.825l32.893-18.815-37.215-21.5L63.472 24.38l32.724 18.9c1.05-.872 2.385-1.42 3.86-1.426zM106.114 46.918c.061.343.109.692.112 1.053.011 2.716-1.752 5.002-4.192 5.825l.09 38.354 37.023-21.23.023-42.911-33.056 18.909zM94.253 118.148c0-.244.045-.478.071-.715L61.38 98.398l.708 42.801 36.354 21-.06-38.3c-2.386-.833-4.117-3.077-4.13-5.751zM32.822 83.1a5.888 5.888 0 0 1 .105-1.14L0 62.94l.102 42.447 37.574 21.705-.59-38.2c-2.46-.792-4.253-3.067-4.264-5.793zM38.931 76.93a6.118 6.118 0 0 1 4.278 1.715l32.739-18.828-37.291-21.4L1.767 59.76l32.849 18.975a6.1 6.1 0 0 1 4.316-1.805z" fill="#fff"/>
    <path d="M93.94 48.026c-.004-.591.103-1.153.259-1.696l-32.53-18.793.129 19.964L81.4 58.753l.32 18.344c2.414.817 4.17 3.072 4.182 5.768.003.638-.12 1.243-.296 1.822l12.882 7.443-.098-38.253c-2.548-.74-4.437-3.06-4.45-5.851z" fill="#fff"/>
    <path d="M100.372 111.976c1.782-.008 3.374.759 4.502 1.968l32.55-18.62-16.695-9.647-20.422 11.71-16.765-9.69c-1.039.822-2.327 1.332-3.753 1.337a6.074 6.074 0 0 1-3.635-1.192l-12.986 7.386 32.634 18.854c1.116-1.274 2.736-2.097 4.57-2.106zM106.45 117.235c.041.284.091.564.091.858.012 2.836-1.915 5.21-4.521 5.927l.064 38.205 37.245-21.217-.072-42.542-32.807 18.769z" fill="#fff"/>
    <path d="m78.074 77.011-.24-14.079-32.86 18.892c.081.394.13.802.133 1.22.014 2.784-1.847 5.116-4.38 5.884l.59 38.283 16.743-9.785-.386-23.257 16.305-9.277a6.064 6.064 0 0 1-.362-1.973c-.012-2.815 1.882-5.168 4.457-5.908zM175.907 30.76l-4.794-12.064c-.519-1.279-1.038-3.236-1.038-3.236s-.558 1.957-1.078 3.236l-4.794 12.065h11.704zm-6.071-20.413h.478l11.506 27.445h-3.035l-1.838-4.554h-13.744l-1.797 4.554h-2.837l11.267-27.445zM184.853 32.598l2.397-1.279c1.278 2.279 3.155 4.236 6.992 4.236 3.155 0 5.633-1.759 5.633-4.636 0-2.755-1.719-4.153-5.113-5.672l-2.159-.998c-3.875-1.758-5.992-3.636-5.992-7.43 0-3.916 3.076-6.513 7.151-6.513 3.635 0 5.913 1.678 7.352 4.076l-2.319 1.437c-1.04-1.678-2.475-2.957-5.033-2.957-2.677 0-4.314 1.56-4.314 3.876 0 2.397 1.277 3.476 4.314 4.874l2.157.998c4.515 1.999 6.83 4.235 6.83 8.309 0 4.476-3.555 7.192-8.427 7.192-5.194 0-8.031-2.637-9.469-5.513zM232.388 24.21c0-6.472-4.634-11.306-10.986-11.306-6.312 0-10.947 4.834-10.947 11.306 0 6.471 4.635 11.306 10.947 11.306 6.352 0 10.986-4.834 10.986-11.306zm-24.928 0c0-8.19 6.23-13.902 13.942-13.902 7.75 0 13.983 5.712 13.983 13.902s-6.233 13.902-13.983 13.902c-7.712 0-13.942-5.712-13.942-13.902zM240.092 24.21c0-8.19 6.232-13.902 13.942-13.902 4.794 0 8.469 1.797 10.788 5.272l-2.198 1.598c-1.758-2.596-4.674-4.274-8.59-4.274-6.35 0-10.945 4.834-10.945 11.306 0 6.471 4.595 11.306 10.945 11.306 3.955 0 6.992-1.718 8.949-4.555l2.236 1.558c-2.396 3.515-6.31 5.593-11.185 5.593-7.71 0-13.942-5.712-13.942-13.902zM274.084 10.626h-2.918v27.165h2.918V10.626zM297.131 30.76l-4.794-12.064c-.52-1.279-1.038-3.236-1.038-3.236s-.559 1.957-1.079 3.236l-4.793 12.065h11.704zm-6.071-20.413h.478l11.506 27.445h-3.036l-1.837-4.554h-13.744l-1.797 4.554h-2.837l11.267-27.445zM305.276 24.21c0-8.19 6.232-13.902 13.942-13.902 4.794 0 8.469 1.797 10.788 5.272l-2.198 1.598c-1.758-2.596-4.674-4.274-8.59-4.274-6.35 0-10.946 4.834-10.946 11.306 0 6.471 4.596 11.306 10.946 11.306 3.954 0 6.992-1.718 8.949-4.555l2.236 1.558c-2.396 3.515-6.31 5.593-11.185 5.593-7.71 0-13.942-5.712-13.942-13.902zM339.271 10.626h-2.918v27.165h2.918V10.626zM361.159 0h3.197l-3.717 7.71h-2.198L361.159 0zm9.428 24.21c0-6.473-4.634-11.307-10.986-11.307-6.312 0-10.948 4.834-10.948 11.307 0 6.471 4.636 11.304 10.948 11.304 6.352 0 10.986-4.833 10.986-11.304zm-24.929 0c0-8.191 6.231-13.904 13.943-13.904 7.75 0 13.983 5.713 13.983 13.904 0 8.188-6.233 13.902-13.983 13.902-7.712 0-13.943-5.714-13.943-13.902zM384.205 18.896c-.759-.919-1.878-2.517-1.878-2.517s.239 1.918.239 3.076v18.337h-2.717V10.347h.481l16.219 19.175c.757.919 1.878 2.517 1.878 2.517s-.2-1.918-.2-3.076V10.627h2.677v27.446h-.48l-16.219-19.176zM312.64 125.613c-17.081 0-30.975-13.896-30.975-30.975s13.894-30.973 30.975-30.973c1.935 0 3.822.2 5.658.541-.065.408-.126.82-.126 1.248a7.736 7.736 0 0 0 7.736 7.735c2.394 0 4.506-1.11 5.924-2.817 7.164 5.678 11.782 14.436 11.782 24.266 0 17.079-13.894 30.975-30.974 30.975zm20.963-59.76c.008-.135.04-.262.04-.399a7.734 7.734 0 0 0-7.735-7.735c-2.09 0-3.979.837-5.369 2.182a35.637 35.637 0 0 0-7.899-.892c-19.646 0-35.631 15.983-35.631 35.629 0 19.647 15.985 35.63 35.631 35.63 19.645 0 35.63-15.983 35.63-35.63 0-11.815-5.785-22.3-14.667-28.785z" fill="#fff"/>
    <path d="M312.641 64.052c-16.865 0-30.587 13.721-30.587 30.586 0 16.866 13.722 30.587 30.587 30.587 16.865 0 30.587-13.721 30.587-30.587 0-9.244-4.131-17.872-11.348-23.73-1.549 1.7-3.704 2.669-5.971 2.669-4.479 0-8.123-3.644-8.123-8.123 0-.325.032-.64.073-.933a30.065 30.065 0 0 0-5.218-.469zm0 61.949c-17.295 0-31.363-14.069-31.363-31.363 0-17.293 14.068-31.362 31.363-31.362 1.869 0 3.742.18 5.73.55l.374.068-.061.376a7.24 7.24 0 0 0-.122 1.184c0 4.05 3.294 7.347 7.347 7.347 2.16 0 4.211-.975 5.625-2.676l.242-.292.297.235c7.582 6.01 11.931 14.965 11.931 24.57 0 17.294-14.068 31.363-31.363 31.363zm0-66.604c-19.432 0-35.243 15.81-35.243 35.24 0 19.434 15.811 35.243 35.243 35.243 19.432 0 35.243-15.809 35.243-35.242 0-11.194-5.424-21.837-14.511-28.472l-.169-.124.011-.211c.005-.07.014-.138.023-.207.008-.055.017-.113.017-.17 0-4.052-3.296-7.347-7.346-7.347a7.31 7.31 0 0 0-5.1 2.073l-.152.148-.205-.048a35.256 35.256 0 0 0-7.811-.883zm0 71.259c-19.861 0-36.018-16.157-36.018-36.018 0-19.86 16.157-36.017 36.018-36.017 2.595 0 5.211.288 7.781.858a8.07 8.07 0 0 1 5.487-2.148c4.48 0 8.122 3.644 8.122 8.123 0 .074-.008.149-.017.22 9.177 6.788 14.646 17.599 14.646 28.964 0 19.861-16.157 36.018-36.019 36.018zM416.308 106.347a7.734 7.734 0 0 0-7.733 7.735c0 .982.2 1.914.534 2.778-5.209 3.785-11.483 5.855-17.922 5.855-16.866 0-30.587-13.72-30.587-30.587 0-16.864 13.721-30.586 30.587-30.586 4.027 0 7.958.793 11.626 2.317a7.693 7.693 0 0 0-.17 1.595 7.737 7.737 0 0 0 15.471 0 7.734 7.734 0 0 0-7.734-7.735c-1.717 0-3.287.578-4.571 1.523a35.696 35.696 0 0 0-14.622-3.132c-19.861 0-36.019 16.159-36.019 36.019 0 19.859 16.158 36.018 36.019 36.018 7.803 0 15.356-2.559 21.575-7.229 1.066.556 2.261.899 3.546.899a7.735 7.735 0 1 0 0-15.47z" fill="#fff"/>
</svg>
