<svg width="161" height="34" viewBox="0 0 161 34" fill="none" xmlns="http://www.w3.org/2000/svg">
    <path d="M51.863 24.793c.004.02.01.04.016.06-.005-.02-.012-.04-.016-.06zm-.024-.154.009.056-.009-.056zm.063.305.017.045-.017-.045zm-.043-.757c0 .003 0 .007-.002.01l.002-.01zM45.443 13.35h.002-.002zm.606 0-.004.001h.004zm7.34 9.57c-.665 0-1.231.417-1.455 1.002l.002-.003h-5.607V13.268a1.555 1.555 0 0 0-.581-3 1.556 1.556 0 0 0-.587 2.997h-.003v11.488c0 .225.112.337.337.337h6.461v-.001a1.556 1.556 0 1 0 1.432-2.167zM116.181 32.381a2.147 2.147 0 0 1-1.03.236c-.313 0-.602-.056-.864-.17a2.044 2.044 0 0 1-.679-.467 2.148 2.148 0 0 1-.448-.702 2.379 2.379 0 0 1-.16-.884c0-.319.053-.614.16-.884.107-.27.257-.504.448-.703.191-.199.417-.355.679-.467.262-.113.551-.17.864-.17.388 0 .723.077 1.006.23.283.15.51.355.683.612l.432-.315c-.461-.691-1.167-1.036-2.121-1.036a2.86 2.86 0 0 0-1.067.2 2.624 2.624 0 0 0-.873.561 2.65 2.65 0 0 0-.585.864 2.779 2.779 0 0 0-.216 1.108c0 .403.072.772.216 1.107.143.336.339.624.585.865.246.24.537.427.873.561.335.134.69.2 1.067.2.482 0 .91-.096 1.285-.29.374-.194.679-.464.915-.81l-.44-.306a2.051 2.051 0 0 1-.73.66zM123.364 31.278a2.102 2.102 0 0 1-1.135 1.17c-.263.112-.55.169-.864.169-.309 0-.596-.057-.86-.17a2.02 2.02 0 0 1-.683-.467 2.15 2.15 0 0 1-.449-.702 2.379 2.379 0 0 1-.16-.884c0-.319.053-.614.16-.884.108-.27.257-.504.449-.703.19-.199.418-.355.683-.467.264-.113.551-.17.86-.17a2.109 2.109 0 0 1 1.999 1.34c.107.27.161.565.161.884 0 .32-.054.614-.161.884zm-.055-2.856a2.697 2.697 0 0 0-.872-.562 2.86 2.86 0 0 0-1.072-.2c-.377 0-.733.067-1.069.2a2.64 2.64 0 0 0-.872.562c-.246.241-.44.529-.585.864a2.779 2.779 0 0 0-.216 1.108c0 .403.072.772.216 1.107.145.336.339.624.585.865.246.24.538.428.872.561.336.133.692.2 1.069.2.382 0 .739-.067 1.072-.2.332-.134.623-.32.872-.561.249-.241.445-.53.589-.865.144-.335.216-.704.216-1.107s-.072-.773-.216-1.108a2.63 2.63 0 0 0-.589-.864M128.415 30.743a1.987 1.987 0 0 0-.418-.354 4.71 4.71 0 0 0-.58-.31l-.423-.196c-.298-.136-.513-.271-.646-.405-.134-.133-.2-.318-.2-.554 0-.23.075-.415.224-.554.149-.138.357-.208.624-.208.252 0 .453.056.605.165.152.11.28.25.385.417l.456-.283a1.76 1.76 0 0 0-.558-.578c-.23-.148-.526-.223-.888-.223-.198 0-.385.03-.557.09-.173.06-.323.147-.451.26a1.199 1.199 0 0 0-.298.404 1.245 1.245 0 0 0-.108.526c0 .189.027.354.079.495.052.141.129.27.228.385.099.116.222.22.369.314s.315.184.503.267l.424.197c.167.074.314.148.44.224.125.076.23.157.314.243a.88.88 0 0 1 .189.287.986.986 0 0 1 .062.361.823.823 0 0 1-.322.668c-.099.078-.215.139-.349.18a1.432 1.432 0 0 1-.436.063c-.189 0-.355-.022-.499-.067a1.318 1.318 0 0 1-.66-.447 2.428 2.428 0 0 1-.215-.319l-.473.252c.069.141.156.278.264.409.107.13.237.245.389.345a2 2 0 0 0 .526.24c.199.06.427.09.684.09.24 0 .461-.033.663-.098a1.6 1.6 0 0 0 .523-.28 1.3 1.3 0 0 0 .346-.443c.083-.176.125-.373.125-.593 0-.2-.028-.378-.086-.538a1.335 1.335 0 0 0-.255-.432zM129.871 28.226h1.642v4.838h.566v-4.838h1.641v-.503h-3.849v.503zM136.583 29.105c.024.073.048.141.075.204l.943 2.373h-2.302l.943-2.373c.026-.063.051-.13.074-.204.024-.073.045-.142.067-.204.021-.073.044-.15.071-.228.021.079.041.155.063.228l.066.204zm-.176-1.438-2.215 5.397h.558l.353-.896h2.702l.361.896h.597l-2.262-5.396h-.094zM143.845 31.155h-.605v-2.93h.605c.299 0 .554.037.766.11.212.074.384.176.515.307.131.13.227.287.286.467.06.181.091.376.091.585 0 .21-.031.404-.091.581a1.166 1.166 0 0 1-.286.464 1.33 1.33 0 0 1-.511.306c-.209.074-.466.11-.77.11zm1.967-.408a1.94 1.94 0 0 0 .28-1.053c0-.288-.047-.552-.142-.793a1.709 1.709 0 0 0-.42-.625 1.92 1.92 0 0 0-.691-.407 2.879 2.879 0 0 0-.962-.146h-1.202v5.34h.565v-1.42h.637c.194 0 .382-.016.565-.048l1.03 1.469h.667l-1.163-1.642c.372-.152.651-.377.836-.675zM148.496 27.723h-.566v5.341h.566v-5.34zM154.002 32.381a2.146 2.146 0 0 1-1.029.236c-.315 0-.602-.056-.865-.17a2.04 2.04 0 0 1-.678-.467 2.15 2.15 0 0 1-.449-.702 2.379 2.379 0 0 1-.161-.884c0-.319.054-.614.161-.884.108-.27.257-.504.449-.703.191-.199.416-.355.678-.467.263-.113.55-.17.865-.17.388 0 .722.077 1.006.23.282.15.51.355.683.612l.432-.315c-.462-.691-1.168-1.036-2.121-1.036a2.87 2.87 0 0 0-1.069.2 2.64 2.64 0 0 0-.872.561c-.246.241-.441.529-.584.864a2.762 2.762 0 0 0-.217 1.108c0 .403.072.772.217 1.107.143.336.338.624.584.865.247.24.537.427.872.561.335.134.692.2 1.069.2.481 0 .91-.096 1.284-.29.374-.194.679-.464.916-.81l-.441-.306a2.051 2.051 0 0 1-.73.66zM158.624 29.105c.024.073.048.141.075.204l.942 2.373h-2.301l.943-2.373c.025-.063.051-.13.074-.204l.067-.204c.02-.073.044-.15.07-.228l.063.228.067.204zm-.177-1.438-2.214 5.397h.557l.353-.896h2.703l.361.896h.597l-2.263-5.396h-.094zM110.6 21.915c-.113-.136-.222-.206-.328-.206a2.413 2.413 0 0 0-.136.029.413.413 0 0 0-.154.075c-.388.28-.811.499-1.27.655a4.44 4.44 0 0 1-1.446.234 4.233 4.233 0 0 1-3.129-1.33 4.463 4.463 0 0 1-.903-1.447 4.833 4.833 0 0 1-.323-1.775c0-.636.107-1.232.323-1.788a4.298 4.298 0 0 1 2.281-2.43c.53-.241 1.113-.36 1.751-.36.505 0 .984.077 1.433.234.449.155.871.374 1.263.654a.63.63 0 0 0 .151.07.45.45 0 0 0 .131.025c.118 0 .231-.072.337-.216l.909-1.545a.488.488 0 0 0 .055-.216.353.353 0 0 0-.074-.225.666.666 0 0 0-.188-.159 7.043 7.043 0 0 0-3.998-1.218c-.663 0-1.297.087-1.907.258a7.353 7.353 0 0 0-1.709.722 6.96 6.96 0 0 0-1.447 1.12 7.246 7.246 0 0 0-1.119 1.455 7.133 7.133 0 0 0-.973 3.62c0 .662.084 1.297.252 1.905a6.99 6.99 0 0 0 .721 1.705 7.255 7.255 0 0 0 2.566 2.562 7.083 7.083 0 0 0 3.616.974 7.04 7.04 0 0 0 2.14-.324 7.475 7.475 0 0 0 1.896-.912c.069-.05.129-.104.183-.16a.305.305 0 0 0 .079-.215.46.46 0 0 0-.056-.207l-.927-1.564zM125.791 24.678V11.586a.356.356 0 0 0-.136-.295.5.5 0 0 0-.322-.108h-1.839a.39.39 0 0 0-.299.122.414.414 0 0 0-.111.29v4.851h-6.285v-4.851a.37.37 0 0 0-.139-.29.45.45 0 0 0-.299-.122h-1.866a.366.366 0 0 0-.295.126.434.434 0 0 0-.107.286v13.112c0 .256.133.383.402.383h1.847c.305 0 .457-.137.457-.412v-5.666h6.285v5.666c0 .275.136.412.41.412h1.857c.292 0 .44-.137.44-.412zM132.374 20.099c.337-.856.673-1.745 1.006-2.67.335-.923.671-1.816 1.008-2.678l1.976 5.348h-3.99zm8.512 4.71c0-.03-.004-.07-.013-.117a.627.627 0 0 1-.014-.098l-4.944-12.371-.31-.732a1.33 1.33 0 0 0-.145-.196c-.066-.075-.175-.112-.324-.112h-1.507a.464.464 0 0 0-.342.126.572.572 0 0 0-.155.23l-5.048 12.568c-.031.088-.067.184-.108.29-.04.106-.076.222-.107.347a.267.267 0 0 0-.008.084c0 .088.035.154.107.197a.537.537 0 0 0 .285.065h1.873c.238 0 .399-.115.487-.346.107-.287.236-.623.388-1.007.154-.384.311-.795.474-1.232h5.778c.112.307.229.61.347.91l.356.898.169.431c.049.12.111.206.187.262a.52.52 0 0 0 .318.084h1.845c.275 0 .411-.093.411-.28zM145.457 11.295a.466.466 0 0 0-.297-.112h-1.858c-.137 0-.24.04-.308.122a.43.43 0 0 0-.103.29v13.083c0 .275.137.412.411.412h1.858c.292 0 .438-.137.438-.412V11.595a.365.365 0 0 0-.141-.3zM160.569 11.295a.493.493 0 0 0-.323-.112h-1.808a.407.407 0 0 0-.272.094.41.41 0 0 0-.14.262v8.972a2836.94 2836.94 0 0 1-3.175-4.538 3675.084 3675.084 0 0 0-3.175-4.537.607.607 0 0 0-.211-.192.532.532 0 0 0-.247-.061h-2.155a.383.383 0 0 0-.304.122.434.434 0 0 0-.108.3v13.082c0 .126.033.224.098.296.067.072.171.107.314.107h1.798c.156 0 .267-.034.333-.103.066-.068.098-.171.098-.309v-9.393c1.092 1.598 2.184 3.192 3.273 4.781a1787.82 1787.82 0 0 0 3.283 4.772c.118.168.247.252.384.252h2.032c.294 0 .441-.127.441-.383V11.595a.373.373 0 0 0-.136-.3zM41.501 22.265a2.756 2.756 0 0 1-1.345 1.435c-.302.147-.622.22-.958.22h-5.429v-5.432h5.364c.342 0 .67.076.98.23.312.152.585.356.818.612.234.255.42.548.56.878a2.662 2.662 0 0 1 .01 2.057zm-6.93-10.634c0 .009.002.017.003.025l-.004-.025zm-.028-.154.003.012-.003-.012zm-.044-.153.002.003-.002-.003zm.058.777zm7.676 7.01a4.052 4.052 0 0 0-.72-.821 3.35 3.35 0 0 0-.912-.567c.476-.318.859-.73 1.147-1.235a3.346 3.346 0 0 0 .431-1.684 3.599 3.599 0 0 0-1.07-2.588 3.628 3.628 0 0 0-1.175-.767 3.797 3.797 0 0 0-1.45-.276h-4.045l.001.003a1.555 1.555 0 0 0-2.97.649 1.557 1.557 0 0 0 3.023.517v.002h3.99c.356 0 .688.062.997.187.309.124.574.297.8.517a2.458 2.458 0 0 1 .73 1.769c0 .354-.066.684-.198.989a2.4 2.4 0 0 1-.542.793 2.545 2.545 0 0 1-1.796.718h-4.705v-1.75c0-.287-.148-.43-.447-.43h-.245c-.319 0-.478.143-.478.43v9.252a.345.345 0 0 0 .09.187.29.29 0 0 0 .2.084h6.3c.517-.006 1-.115 1.45-.328a3.821 3.821 0 0 0 1.168-.848c.33-.353.59-.76.78-1.224.19-.462.286-.949.286-1.461 0-.381-.056-.753-.168-1.116a3.91 3.91 0 0 0-.472-1.003zM96.998 23.54l-.005.006.005-.007zm.405-.374-.014.008.014-.008zm-.217.167-.013.012.013-.012zm-9.304-9.979.013.003-.013-.003zm.562 0zm9.793 9.567a1.56 1.56 0 0 0-.6.12l-5.121-6.089 5.254-5.498c-.019-.038-.025-.056-.019-.056l.01.01c0 .006.003.013.009.018.062-.062.094-.116.094-.16 0-.055-.066-.084-.197-.084h-1.03a.409.409 0 0 0-.23.08 1.708 1.708 0 0 0-.248.21l-7.455 7.914v-6.104a1.556 1.556 0 1 0-2.098-1.457c0 .671.426 1.241 1.021 1.46V24.66c0 .287.137.43.412.43h.225c.294 0 .44-.143.44-.43v-3.69l3.091-3.26 5.055 6.065a1.557 1.557 0 1 0 1.387-.853zM19.962 8.35a1.22 1.22 0 0 1 .875.365L27.4 4.96 19.975.67l-7.312 4.193 6.529 3.771a1.21 1.21 0 0 1 .77-.285zM21.17 9.36c.012.069.022.138.022.21.003.542-.349.998-.836 1.162l.018 7.652 7.386-4.235.005-8.561L21.17 9.36zM18.804 23.571c0-.049.009-.095.014-.143l-6.572-3.797.14 8.539 7.254 4.19-.012-7.642a1.223 1.223 0 0 1-.824-1.147zM6.548 16.578c0-.077.007-.153.021-.227L0 12.557l.02 8.468 7.497 4.33-.118-7.62a1.22 1.22 0 0 1-.85-1.157zM7.767 15.348c.332-.002.631.13.853.342l6.532-3.756-7.44-4.27-7.36 4.258 6.554 3.786c.22-.221.524-.36.861-.36z" fill="#000"/>
    <path d="M18.741 9.581c0-.118.021-.23.052-.338l-6.49-3.75.026 3.984 3.91 2.244.064 3.66c.482.163.832.613.835 1.15 0 .128-.024.249-.06.364l2.57 1.485-.019-7.632a1.224 1.224 0 0 1-.888-1.167z" fill="#000"/>
    <path d="M20.025 22.34c.355-.002.673.15.898.392l6.494-3.715-3.331-1.924-4.074 2.336-3.345-1.933a1.207 1.207 0 0 1-1.474.029l-2.59 1.473 6.51 3.762c.223-.255.546-.419.912-.42zM21.237 23.389c.009.057.018.112.018.171a1.224 1.224 0 0 1-.901 1.183l.012 7.622 7.43-4.233-.014-8.488-6.545 3.745z" fill="#000"/>
    <path d="m15.576 15.364-.048-2.809-6.555 3.77a1.224 1.224 0 0 1-.847 1.417l.117 7.637 3.34-1.952-.077-4.64 3.253-1.85a1.207 1.207 0 0 1-.072-.394 1.223 1.223 0 0 1 .89-1.179zM35.094 6.137l-.956-2.407c-.104-.255-.207-.645-.207-.645s-.112.39-.215.645l-.957 2.407h2.335zm-1.21-4.073h.094l2.296 5.476h-.606l-.366-.909H32.56l-.359.909h-.566l2.248-5.476zM36.879 6.503l.478-.255c.255.455.63.845 1.395.845.63 0 1.124-.35 1.124-.925 0-.55-.343-.828-1.02-1.131l-.43-.2c-.774-.35-1.196-.725-1.196-1.482 0-.78.613-1.299 1.426-1.299.726 0 1.18.335 1.467.813l-.462.287c-.208-.335-.494-.59-1.005-.59-.534 0-.86.311-.86.773 0 .479.255.694.86.973l.43.199c.901.399 1.363.845 1.363 1.657 0 .893-.709 1.435-1.68 1.435-1.037 0-1.603-.526-1.89-1.1zM46.362 4.83c0-1.29-.924-2.255-2.191-2.255-1.26 0-2.184.964-2.184 2.255s.924 2.256 2.184 2.256c1.267 0 2.191-.965 2.191-2.256zm-4.973 0c0-1.634 1.243-2.773 2.782-2.773 1.546 0 2.79 1.14 2.79 2.773 0 1.634-1.244 2.774-2.79 2.774-1.539 0-2.782-1.14-2.782-2.774zM47.9 4.83c0-1.634 1.243-2.773 2.78-2.773.957 0 1.69.358 2.153 1.051l-.438.32c-.351-.519-.933-.853-1.714-.853-1.267 0-2.184.964-2.184 2.255s.917 2.256 2.184 2.256c.789 0 1.395-.343 1.785-.909l.446.31c-.478.702-1.259 1.117-2.231 1.117-1.538 0-2.782-1.14-2.782-2.774zM54.68 2.12H54.1v5.42h.582V2.12zM59.279 6.137l-.956-2.407c-.104-.255-.208-.645-.208-.645s-.111.39-.215.645l-.956 2.407h2.335zm-1.211-4.073h.095L60.46 7.54h-.606l-.367-.909h-2.741l-.36.909h-.565l2.248-5.476zM60.904 4.83c0-1.634 1.243-2.773 2.781-2.773.957 0 1.69.358 2.153 1.051l-.439.32c-.35-.519-.932-.853-1.714-.853-1.267 0-2.183.964-2.183 2.255s.916 2.256 2.183 2.256c.79 0 1.395-.343 1.786-.909l.446.31c-.478.702-1.26 1.117-2.232 1.117-1.538 0-2.781-1.14-2.781-2.774zM67.686 2.12h-.582v5.42h.582V2.12zM72.053 0h.638l-.742 1.538h-.438L72.053 0zm1.88 4.83c0-1.291-.924-2.256-2.191-2.256-1.26 0-2.184.965-2.184 2.256s.925 2.255 2.184 2.255c1.267 0 2.192-.964 2.192-2.255zm-4.973 0c0-1.634 1.243-2.774 2.782-2.774 1.546 0 2.79 1.14 2.79 2.774 0 1.634-1.244 2.774-2.79 2.774-1.539 0-2.782-1.14-2.782-2.774zM76.65 3.77a10.254 10.254 0 0 1-.374-.502s.048.383.048.614V7.54h-.543V2.064h.096l3.236 3.826c.151.183.375.502.375.502s-.04-.382-.04-.613V2.12h.534v5.476h-.096L76.651 3.77zM62.373 25.06a6.187 6.187 0 0 1-6.18-6.18 6.186 6.186 0 0 1 6.18-6.179c.386 0 .763.04 1.129.108a1.568 1.568 0 0 0-.025.25c0 .851.69 1.542 1.543 1.542.478 0 .899-.221 1.182-.562a6.168 6.168 0 0 1 2.35 4.842 6.187 6.187 0 0 1-6.18 6.18zm4.182-11.922c.002-.027.008-.053.008-.08a1.543 1.543 0 0 0-2.614-1.107 7.107 7.107 0 0 0-1.576-.179c-3.92 0-7.108 3.19-7.108 7.109a7.116 7.116 0 0 0 7.108 7.108c3.92 0 7.108-3.189 7.108-7.108a7.102 7.102 0 0 0-2.926-5.743z" fill="#000"/>
    <path d="M62.373 12.779a6.11 6.11 0 0 0-6.102 6.102 6.11 6.11 0 0 0 6.102 6.102 6.11 6.11 0 0 0 6.102-6.102 6.07 6.07 0 0 0-2.263-4.735 1.61 1.61 0 0 1-1.192.533c-.893 0-1.62-.727-1.62-1.62 0-.065.006-.128.014-.187a6 6 0 0 0-1.04-.093zm0 12.359a6.264 6.264 0 0 1-6.257-6.257 6.264 6.264 0 0 1 6.257-6.257c.373 0 .747.036 1.143.11l.075.013-.012.075a1.44 1.44 0 0 0-.025.237c0 .808.658 1.465 1.466 1.465.431 0 .84-.194 1.123-.533l.048-.059.059.047a6.226 6.226 0 0 1 2.38 4.902 6.264 6.264 0 0 1-6.257 6.257zm0-13.288c-3.877 0-7.03 3.154-7.03 7.03a7.04 7.04 0 0 0 7.03 7.032 7.04 7.04 0 0 0 7.031-7.031 7.06 7.06 0 0 0-2.895-5.68l-.033-.025.002-.042c0-.014.003-.028.005-.041l.003-.034c0-.809-.658-1.466-1.466-1.466-.38 0-.741.147-1.017.413l-.03.03-.041-.01a7.029 7.029 0 0 0-1.559-.176zm0 14.217c-3.962 0-7.186-3.224-7.186-7.186 0-3.962 3.224-7.186 7.186-7.186.518 0 1.04.058 1.553.171a1.61 1.61 0 0 1 1.094-.428c.894 0 1.62.727 1.62 1.62 0 .015 0 .03-.003.044a7.215 7.215 0 0 1 2.922 5.779 7.194 7.194 0 0 1-7.186 7.186zM83.055 21.217c-.852 0-1.543.69-1.543 1.543 0 .196.04.382.107.554a6.088 6.088 0 0 1-3.576 1.168 6.109 6.109 0 0 1-6.102-6.102 6.11 6.11 0 0 1 6.102-6.102 6.03 6.03 0 0 1 2.32.462 1.543 1.543 0 1 0 1.51-1.225c-.343 0-.656.116-.912.304a7.122 7.122 0 0 0-2.918-.625c-3.962 0-7.185 3.224-7.185 7.186 0 3.962 3.223 7.186 7.185 7.186 1.557 0 3.064-.51 4.305-1.442.213.11.45.18.707.18a1.543 1.543 0 1 0 0-3.087z" fill="#000"/>
</svg>
